
<svg version="1.1" id="Layer_1" xmlns="http://www.w3.org/2000/svg" xmlns:xlink="http://www.w3.org/1999/xlink" x="0px" y="0px"
	style="enable-background:new -267 357 80 80;" xml:space="preserve">

<path id="birdShape" d="M-207.7,393.6c0.6-0.7,1-2,0.8-3.2c-0.2-1.8-2.1-3.3-3.3-4.5l-0.2-0.2c-1.4-1.4-2.8-2.8-4.2-4.1
	c-0.2-0.2-0.4-0.4-0.6-0.6l-2.7-2.6l-0.1-0.2c-3.8-3.9-7.9-7.8-11.7-11.6c-2.1-2.1-4.6-4.7-6.8-6.6c0,0-0.1,0-0.1-0.1
	c-0.3-0.3-0.7-0.8-0.9,0.1v0.1c-0.1,1.1,0,2.6-0.1,3.8v0.2c-0.1,1.2,0,2.7-0.1,4v0.2c-0.1,1.2,0,2.7-0.1,4v0.1
	c-0.1,1.2,0,2.7-0.1,4.1v0.1c-0.2,0.3,0,1.2,0,2c0,0.1,0,0.2,0,0.3s0,0.2,0,0.2c-0.1,0.5-1.1,1.2-1.6,1.8c-0.6,0.7-1.1,1.2-1.6,1.8
	c-5.4,5.8-10.9,11.3-16.2,17.1c-1.9,2-3.8,4-5.6,6c-0.3,0.3-0.7,0.6-0.7,1c14.2,8.7,29,17.5,43.4,26.1c0.8,0.5,2.1,1.7,3,1.7
	c1.9,0,1.5-3.1,0.9-4.5c-0.5-1.1-1.1-2-1.7-2.7c-1.2-1.5-3.2-3-3.4-5.4c-0.1-1.3,0.1-2.3,0.4-3.2c0.1-0.2,0.1-0.3,0.2-0.5l0,0
	c0.1-0.1,0.1-0.2,0.1-0.3c0.2-0.5,0.5-0.8,0.7-1.3l0.1-0.1c0.9-1.5,1.9-2.9,2.1-5.3V411c0,0,0.1,0,0.1-0.1c-0.1-2.6-0.8-4.5-1.6-6.4
	c-0.7-2-2.3-3.7-2.5-6.2v-0.1V398c0.1-0.3,0.1-0.7,0.1-0.9V397c0.5-1.9,1.6-3,3.2-3.7h0.1c1.2-0.4,2.6,0.1,3.6,0.4h0.1
	c1.1,0.5,2.1,0.9,3.6,1h0.1C-209.6,394.9-208.3,394.5-207.7,393.6z M-193.4,406.4c0.7-0.4,1.5-0.6,2-1.1c-2.3-2.8-5.3-5.7-7.9-8.4
	c-0.4-0.4-0.7-1-1.1-1.2c-1.4-0.7-2.1,0.9-2.7,1.8c-1.4,1.7-3.2,2.6-5.3,3.4c-0.5,0.2-1,0.1-1.5,0.3c-0.9,0.3-1.6,1.2-1.9,2.2l0,0
	v0.2v0.1c-0.1,0.4,0,0.9,0.1,1.3v0.1c0,0.4,0,0.7,0.1,0.8v0.1c0.1,1.1,0.3,2.1,0.5,3.2l0,0c0,0.5-0.1,1.1,0.1,1.5v0.1
	c0,0.6,0,1,0.3,1.3v0.1c0.3,0.7,0.8,1.2,1.7,1.3c2,0.3,3.3-0.7,4.6-1.5c1.2-0.7,2.3-1.1,3.4-1.7h0.1c0.7-0.3,1.5-0.7,2.1-1.1l0,0
	c0.7-0.3,1.2-0.6,1.9-0.9c0.1,0,0.1,0,0.2-0.1c0.6-0.3,1.1-0.5,1.6-0.8h0.1C-194.6,407.1-194,406.8-193.4,406.4L-193.4,406.4z
	 M-218.2,398.8c0,1.1,0.9,2.1,2.1,2.1c1.1,0,2.1-0.9,2.1-2.1c0-1.1-0.9-2.1-2.1-2.1C-217.3,396.7-218.2,397.7-218.2,398.8z"/>
</svg>
