
<svg version="1.1" xmlns="http://www.w3.org/2000/svg" xmlns:xlink="http://www.w3.org/1999/xlink" x="0px" y="0px"
	  xml:space="preserve">
<g id="LOGO">
	<path id="REGISTERED" fill="#EE3424" d="M376.9,6.4c0,1.5-1.2,2.7-2.7,2.7c-1.5,0-2.7-1.2-2.7-2.7c0-1.5,1.2-2.7,2.7-2.7
		C375.7,3.7,376.9,4.9,376.9,6.4L376.9,6.4C376.9,7.9,376.9,6.4,376.9,6.4L376.9,6.4z M376.5,6.4c0-1.3-1-2.3-2.3-2.3
		c-1.2,0-2.3,1-2.3,2.3c0,1.3,1,2.3,2.3,2.3C375.5,8.7,376.5,7.7,376.5,6.4L376.5,6.4C376.5,5.1,376.5,6.4,376.5,6.4L376.5,6.4z
		 M375.4,7.9h-0.5l-0.7-1.2h-0.4v1.2h-0.4v-3h1c0.5,0,0.9,0.4,0.9,0.9c0,0.4-0.3,0.7-0.6,0.8L375.4,7.9L375.4,7.9z M374.9,5.8
		c0-0.3-0.2-0.5-0.6-0.5h-0.6v1h0.6C374.7,6.3,374.9,6.1,374.9,5.8L374.9,5.8C374.9,5.5,374.9,5.8,374.9,5.8L374.9,5.8z"/>
	<path id="CARDINAL" fill="#EE3424" d="M344,45.9v-42h10.5v34.2h23.3v7.7H344L344,45.9z M287.4,45.9h11.5l3.6-7.9h21.5l3.6,7.9h11.8
		L319,3.9h-11.4L287.4,45.9L287.4,45.9z M320.6,30.6h-14.7l6.4-14c0.2-0.5,0.4-1.1,0.7-1.6c0.1-0.5,0.2-1,0.4-1.5
		c0.1,0.6,0.2,1.1,0.4,1.7c0.2,0.5,0.4,1.1,0.7,1.7L320.6,30.6L320.6,30.6z M49.6,46h11.5l3.6-7.9h21.5l3.6,7.9h11.8L81.2,4H69.9
		L49.6,46L49.6,46z M82.8,30.7H68.1l6.4-14c0.2-0.5,0.4-1.1,0.7-1.6c0.1-0.5,0.2-1,0.4-1.5c0.1,0.6,0.2,1.1,0.4,1.7
		c0.2,0.5,0.4,1.1,0.7,1.7L82.8,30.7L82.8,30.7z M236.2,45.9h10V22.8c-0.1-3.2-0.1-3.9-0.4-7.1c2.3,3,3.2,4,5.4,6.6L272,45.9h10.4
		v-42h-10v21.5c0.1,3.6,0.1,4.7,0.4,8.7c-2.6-3.3-3.1-3.9-5.6-6.8L246.6,3.9h-10.5V45.9L236.2,45.9z M214,45.9h10.5v-42H214V45.9
		L214,45.9z M159.4,45.9H181c6.4-0.1,14.3-0.1,20.1-7.8c2.9-3.9,4.1-8.6,4.1-13.4c0-10.8-6.1-19.4-18.3-20.5
		c-1.5-0.2-3.1-0.2-4.6-0.2h-22.9V45.9L159.4,45.9z M182,11.4L182,11.4c3.6,0.1,8,0.1,10.8,4.5c1.2,1.9,2.1,4.6,2.1,8.6
		c0,5.3-1.3,8.2-2.6,9.9c-2.8,4-7.1,4-10.8,4.1h-11.6V11.4H182L182,11.4z M39.3,31.7L39.3,31.7c-1.4,2.6-4.2,7.9-13.3,7.9
		c-8,0-15.2-5.5-15.2-14.6c0-8,5.4-14.6,14.9-14.6c8.1,0,11.4,5,12.5,6.8l11.5-1.4C44.5,3.7,30.7,2.6,25.9,2.6
		C12.6,2.6,0,9.1,0,24.9c0,14.7,10.3,22.5,25.3,22.5c10.7,0,16.3-3.5,19.7-6.6c3.7-3.4,4.7-6.5,5.5-9.1L39.3,31.7L39.3,31.7z
		 M124.3,24.8l20,26.6l12.3-0.1l-16.4-20.8c0,0,5.1-0.4,7.9-4.2c0.8-1.1,2.7-2.7,2.7-8c0-3.5-1-7.7-4.5-11
		C142.8,4.1,135.8,4,135.8,4h-29.7v41.9h10.5V11.3l17.7,0.1c0,0,5.7,0.4,5.7,6.5c0,7.1-5.8,7-5.8,7L124.3,24.8L124.3,24.8z"/>
	<path id="BIRD_1_" fill-rule="evenodd" clip-rule="evenodd" fill="#EF3C24" d="M428.5,21.9c0.3-0.4,0.7-1.3,0.6-2
		c-0.1-1.1-1.3-2.1-2.1-2.9l-0.1-0.1c-0.9-0.9-1.8-1.8-2.7-2.6c-0.1-0.1-0.2-0.2-0.3-0.3l-1.7-1.7l-0.1-0.1c-2.5-2.5-5.1-5-7.5-7.4
		c-1.4-1.4-2.9-3-4.4-4.3c0,0,0,0-0.1-0.1c-0.2-0.2-0.5-0.5-0.6,0.1v0c-0.1,0.7,0,1.7,0,2.5V3c-0.1,0.8,0,1.7,0,2.6v0.1
		c-0.1,0.8,0,1.7,0,2.6v0.1c-0.1,0.8,0,1.8,0,2.6V11c-0.1,0.2,0,0.8,0,1.2c0,0.1,0,0.1,0,0.2c0,0,0,0.1,0,0.1
		c-0.1,0.3-0.7,0.8-1,1.1c-0.4,0.4-0.7,0.8-1,1.1c-3.5,3.7-7,7.3-10.4,11c-1.2,1.3-2.5,2.6-3.6,3.8c-0.2,0.2-0.4,0.4-0.5,0.6
		c9.2,5.6,18.7,11.2,27.9,16.8c0.5,0.3,1.4,1.1,1.9,1.1c1.2,0,1-2,0.6-2.9c-0.3-0.7-0.7-1.3-1.1-1.7c-0.8-1-2-1.9-2.2-3.5
		c-0.1-0.8,0.1-1.5,0.2-2c0-0.1,0.1-0.2,0.1-0.3l0,0c0-0.1,0.1-0.1,0.1-0.2c0.1-0.3,0.3-0.6,0.5-0.8c0,0,0,0,0-0.1
		c0.6-1,1.2-1.9,1.3-3.4v0c0,0,0,0,0-0.1c-0.1-1.7-0.5-2.9-1-4.2c-0.5-1.3-1.5-2.4-1.6-3.9v0v-0.1c0.1-0.2,0-0.4,0.1-0.6v0
		c0.3-1.2,1-2,2.1-2.4h0c0.8-0.3,1.7,0,2.3,0.3h0c0.7,0.3,1.4,0.6,2.3,0.7h0C427.2,22.7,428,22.4,428.5,21.9z M437.7,30.1
		c0.4-0.2,1-0.4,1.3-0.7c-1.5-1.8-3.4-3.6-5-5.4c-0.2-0.2-0.5-0.6-0.7-0.8c-0.9-0.5-1.4,0.6-1.8,1.1c-0.9,1.1-2,1.7-3.4,2.2
		c-0.3,0.1-0.6,0.1-1,0.2c-0.6,0.2-1,0.8-1.2,1.5c0,0,0,0,0,0l0,0.1v0c-0.1,0.2,0,0.6,0,0.8v0c0,0.2,0,0.4,0.1,0.6v0
		c0.1,0.7,0.2,1.4,0.3,2.1v0c0,0.3-0.1,0.7,0,1v0c0,0.3,0,0.6,0.2,0.8v0c0.2,0.5,0.6,0.8,1.1,0.8c1.3,0.2,2.1-0.5,2.9-1
		c0.8-0.4,1.5-0.7,2.1-1.1h0c0.5-0.2,1-0.4,1.4-0.7h0c0.4-0.2,0.8-0.4,1.2-0.6c0,0,0.1,0,0.1,0c0.4-0.2,0.7-0.3,1-0.5h0
		C436.9,30.6,437.3,30.4,437.7,30.1L437.7,30.1z M421.7,25.2c0,0.7,0.6,1.3,1.3,1.3c0.7,0,1.3-0.6,1.3-1.3s-0.6-1.3-1.3-1.3
		C422.3,23.9,421.7,24.5,421.7,25.2z"/>
</g>
<g id="BIRD">
	<path id="BIRD_SHAPE" fill-rule="evenodd" clip-rule="evenodd" fill="#EF3C24" d="M241,36.4c0.6-0.7,1.1-2.1,0.9-3.4
		c-0.2-1.9-2.2-3.5-3.5-4.8l-0.2-0.2c-1.5-1.5-3-3-4.5-4.4c-0.2-0.2-0.4-0.4-0.6-0.6l-2.9-2.8l-0.2-0.2c-4.1-4.2-8.5-8.3-12.5-12.4
		c-2.3-2.3-4.9-5-7.3-7.1c0,0-0.1,0-0.1-0.1c-0.3-0.3-0.8-0.9-1,0.1v0.1c-0.1,1.2,0,2.8-0.1,4.1v0.2c-0.1,1.3,0,2.9-0.1,4.3v0.2
		c-0.1,1.3,0,2.9-0.1,4.3v0.1c-0.1,1.3,0,2.9-0.1,4.4v0.1c-0.2,0.3,0,1.3,0,2.1c0,0.1,0,0.2,0,0.3c0,0.1,0,0.2,0,0.2
		c-0.1,0.5-1.2,1.3-1.7,1.9c-0.6,0.7-1.2,1.3-1.7,1.9c-5.8,6.2-11.7,12.1-17.3,18.3c-2,2.1-4.1,4.3-6,6.4c-0.3,0.3-0.7,0.6-0.8,1.1
		c15.2,9.3,31,18.7,46.4,27.9c0.9,0.5,2.3,1.8,3.2,1.8c2,0,1.6-3.3,1-4.8c-0.5-1.2-1.2-2.1-1.8-2.9c-1.3-1.6-3.4-3.2-3.6-5.8
		c-0.1-1.4,0.1-2.5,0.4-3.4c0.1-0.2,0.1-0.3,0.2-0.5l0,0c0.1-0.1,0.1-0.2,0.1-0.3c0.2-0.5,0.5-0.9,0.8-1.4c0,0,0.1-0.1,0.1-0.1
		c1-1.6,2-3.1,2.2-5.7V55c0,0,0.1,0,0.1-0.1c-0.1-2.8-0.9-4.8-1.7-6.9c-0.8-2.1-2.5-4-2.7-6.6v-0.1v-0.2c0.1-0.3,0.1-0.7,0.1-1V40
		c0.5-2,1.7-3.2,3.4-4h0.1c1.3-0.4,2.8,0.1,3.8,0.4h0.1c1.2,0.5,2.3,1,3.9,1.1h0.1C238.9,37.8,240.3,37.3,241,36.4z M256.4,50.1
		c0.7-0.4,1.6-0.6,2.1-1.2c-2.5-3-5.7-6.1-8.4-9c-0.4-0.4-0.8-1.1-1.2-1.3c-1.5-0.8-2.3,1-2.9,1.9c-1.5,1.8-3.4,2.8-5.7,3.6
		c-0.5,0.2-1.1,0.1-1.6,0.3c-1,0.3-1.7,1.3-2,2.4c0,0,0,0,0,0l0,0.2v0.1c-0.1,0.4,0,1,0.1,1.4v0.1c0,0.4,0,0.7,0.1,0.9v0.1
		c0.1,1.2,0.3,2.3,0.5,3.4V53c0,0.5-0.1,1.2,0.1,1.6v0.1c0,0.6,0,1.1,0.3,1.4v0.1c0.3,0.8,0.9,1.3,1.8,1.4c2.1,0.3,3.5-0.8,4.9-1.6
		c1.3-0.7,2.5-1.2,3.6-1.8h0.1c0.8-0.3,1.6-0.7,2.3-1.2h0.1c0.7-0.3,1.3-0.6,2-1c0.1,0,0.1,0,0.2-0.1c0.6-0.3,1.2-0.5,1.7-0.9h0.1
		C255.1,50.8,255.7,50.5,256.4,50.1L256.4,50.1z M229.7,41.9c0,1.2,1,2.2,2.2,2.2c1.2,0,2.2-1,2.2-2.2c0-1.2-1-2.2-2.2-2.2
		C230.7,39.7,229.7,40.7,229.7,41.9z"/>
</g>
<g id="SUBTITLE">
	<path id="GLASS" fill="#EEEEEE" d="M178.1,69.6v-2.3c-0.3,0.3-0.6,0.6-0.9,0.9c-1.2,0.9-3.6,1.9-6.5,1.9c-5.9,0-9.7-4.1-9.7-8.9
		c0-2.4,1-4.1,1.5-4.9c1.6-2.3,4.7-4,8.7-4c3.9,0,6.4,1.6,7.4,2.4c0.9,0.8,1.3,1.5,1.7,2.1l-2.4,0.7c-0.3-0.5-0.6-0.8-1.1-1.3
		c-1.4-1.3-3.4-1.9-5.4-1.9c-4.2,0-7.8,2.4-7.8,6.6c0,1.8,0.6,3.2,1.2,4c1.9,2.9,5.4,3.1,6.5,3.1c1.6,0,4-0.5,5.6-2.2
		c1.1-1.2,1.2-2.1,1.3-3.1h-7.5v-2h9.5v9H178.1L178.1,69.6z M183.7,69.6v-17h2.3v17H183.7L183.7,69.6z M191.9,60.7l-2.3-0.2
		c0.5-1.4,1.1-3,6.3-3c1,0,2.5,0.1,3.6,0.4c2.6,0.7,2.6,2.4,2.6,3.7v4.3c0,1.6,0,2.2,1.3,2.2c0.3,0,0.6,0,0.9-0.1v1.6
		c-0.7,0.1-1.4,0.1-2,0.1c-2,0-2.2-1.2-2.3-2c-0.3,0.4-0.6,0.9-1.6,1.4c-1,0.5-2.5,0.9-4,0.9c-4.8,0-5.6-2.7-5.6-4
		c0-1.4,0.8-2.9,2.7-3.4c1.2-0.3,3.5-0.3,5.1-0.3h3.3c0-1.3,0-2.2-1.2-2.7c-0.5-0.2-1.4-0.4-2.7-0.4c-1,0-2,0.1-2.9,0.4
		C192.3,59.9,192.1,60.3,191.9,60.7L191.9,60.7L191.9,60.7z M200,64h-4.3c-1.3,0-2.6,0-3.3,0.3c-0.8,0.3-1.2,0.9-1.2,1.6
		c0,1.1,0.9,2.3,3.4,2.3c0.4,0,2.4,0,3.9-1C199.9,66.2,200,64.9,200,64L200,64L200,64z M204.9,67.5l2-1.3c0.7,0.6,2.4,1.8,5.9,1.8
		c0.8,0,2.1-0.1,2.9-0.4c0.7-0.3,1.3-0.7,1.3-1.5c0-1.1-1.4-1.3-1.9-1.4c-0.7-0.1-4-0.3-4.7-0.4c-1.3-0.1-4.4-0.5-4.4-3.2
		c0-3.4,4.5-3.7,6.5-3.7c4.2,0,6.3,1.6,6.8,2.2l-2,1.1c-1.2-0.8-2.8-1.4-5-1.4c-0.9,0-1.8,0-2.7,0.4c-0.8,0.3-1.2,0.7-1.2,1.3
		c0,1.1,1.6,1.3,3,1.4c1.2,0.1,2.3,0.2,3.5,0.3c0.7,0,1.3,0.1,1.9,0.3c0.5,0.1,2.6,0.7,2.6,3.1c0,3-3.2,4-6.5,4
		C210,70,206.9,69.3,204.9,67.5L204.9,67.5L204.9,67.5z M221,67.5l2-1.3c0.7,0.6,2.4,1.8,5.9,1.8c0.8,0,2.1-0.1,2.9-0.4
		c0.7-0.3,1.3-0.7,1.3-1.5c0-1.1-1.4-1.3-1.9-1.4c-0.7-0.1-4-0.3-4.7-0.4c-1.4-0.1-4.4-0.5-4.4-3.2c0-3.4,4.5-3.7,6.5-3.7
		c4.2,0,6.3,1.6,6.8,2.2l-2,1.1c-1.2-0.8-2.8-1.4-5-1.4c-0.9,0-1.8,0-2.7,0.4c-0.8,0.3-1.2,0.7-1.2,1.3c0,1.1,1.6,1.3,3,1.4
		c1.2,0.1,2.3,0.2,3.5,0.3c0.7,0,1.3,0.1,1.9,0.3c0.5,0.1,2.6,0.7,2.6,3.1c0,3-3.2,4-6.5,4C226.1,70,222.9,69.3,221,67.5L221,67.5
		L221,67.5z M247.6,69.6v-17h2.5v17H247.6L247.6,69.6z M256.3,57.8v1.4c0.5-0.5,0.9-0.8,2-1.2c1-0.4,2-0.6,3.3-0.6
		c2.1,0,4.1,0.6,5.3,2.1c0.9,1.2,0.9,2.4,0.9,3.7v6.4h-2.3v-6.2c0-1,0-2.1-1.1-3c-1.1-0.9-2.4-0.9-3.2-0.9c-0.8,0-1.6,0.1-2.6,0.5
		c-2.2,1-2.2,2.8-2.2,4v5.6H254V57.8H256.3L256.3,57.8z M283.1,59.2v-6.6h2.3v17h-2.3V68c-0.6,0.5-2.1,1.8-5.3,1.8
		c-4.5,0-7-2.9-7-6.2c0-3.9,3.4-6.1,7.1-6.1C280.7,57.5,282.2,58.6,283.1,59.2L283.1,59.2L283.1,59.2z M277.9,59.4
		c-3,0-4.8,1.9-4.8,4.4c0,2.7,2.3,4.1,4.9,4.1c1.3,0,2.4-0.3,3.3-0.8c0.6-0.3,1.8-1.2,1.8-3.5C283.2,60.2,280.2,59.3,277.9,59.4
		L277.9,59.4C274.9,59.4,277.9,59.4,277.9,59.4L277.9,59.4z M289.1,64v-6.2h2.3v6c0,1.3,0,2.2,0.7,3c0.8,0.9,2.2,1.2,3.6,1.2
		c2.7,0,4.1-1.3,4.5-2c0.4-0.7,0.4-1.3,0.4-2v-6.2h2.3v11.8h-2.2v-1.5c-0.9,0.8-2.2,1.9-5.2,1.9c-1.1,0-2.5-0.2-3.6-0.7
		C289.1,68.1,289.1,65.9,289.1,64L289.1,64L289.1,64z M305.3,67.5l2-1.3c0.7,0.6,2.4,1.8,5.9,1.8c0.8,0,2.1-0.1,2.9-0.4
		c0.7-0.3,1.3-0.7,1.3-1.5c0-1.1-1.4-1.3-1.9-1.4c-0.7-0.1-4-0.3-4.7-0.4c-1.3-0.1-4.4-0.5-4.4-3.2c0-3.4,4.5-3.7,6.5-3.7
		c4.2,0,6.3,1.6,6.8,2.2l-2,1.1c-1.2-0.8-2.8-1.4-5-1.4c-0.9,0-1.8,0-2.7,0.4c-0.8,0.3-1.2,0.7-1.2,1.3c0,1.1,1.6,1.3,3,1.4
		c1.2,0.1,2.3,0.2,3.5,0.3c0.7,0,1.3,0.1,1.9,0.3c0.5,0.1,2.6,0.7,2.6,3.1c0,3-3.2,4-6.5,4C310.4,70,307.2,69.3,305.3,67.5
		L305.3,67.5L305.3,67.5z M323.1,57.8v-4h2.3v4h3.3v1.6h-3.3l0,6.3c0,1.2,0,2,1.6,2c0.6,0,1-0.1,1.7-0.2v2c-0.7,0.1-1.5,0.2-2.3,0.2
		c-3.2,0-3.2-1.6-3.2-3.4v-7l-2,0v-1.6H323.1L323.1,57.8z M330.8,69.6V57.8h2.3v1.3c1.7-1.6,4-1.7,4.5-1.7c0.6,0,0.9,0.1,1.4,0.2
		v2.3c-0.6-0.2-1-0.3-1.8-0.3c-0.7,0-1.5,0.1-2.1,0.3c-2,0.7-2,2.4-2,3.3v6.4H330.8L330.8,69.6z M340.8,55.8v-2.3h2.3v2.3H340.8
		L340.8,55.8z M340.8,69.6V57.8h2.3v11.8H340.8L340.8,69.6z M358,65.5l2.2,0.6c-0.4,0.8-0.8,1.6-2,2.4c-1.8,1.2-3.9,1.4-5,1.4
		c-3.7,0-7.2-2-7.2-6.3c0-3.7,2.8-6.2,7.1-6.2c4.4,0,7.2,2.8,7.3,6.5h-12.1c0.1,0.7,0.2,1.5,0.9,2.3c0.9,1.1,2.5,1.8,4.3,1.8
		c1.1,0,2.2-0.3,3-0.9C357.4,66.7,357.7,66.1,358,65.5L358,65.5L358,65.5z M348.5,62.2h9.4c-0.3-0.7-1.2-3.1-4.6-3.1
		C349.7,59.1,348.7,61.6,348.5,62.2L348.5,62.2L348.5,62.2z M362,67.5l2-1.3c0.7,0.6,2.4,1.8,5.9,1.8c0.8,0,2.1-0.1,2.9-0.4
		c0.7-0.3,1.3-0.7,1.3-1.5c0-1.1-1.4-1.3-1.9-1.4c-0.7-0.1-4-0.3-4.7-0.4c-1.3-0.1-4.4-0.5-4.4-3.2c0-3.4,4.5-3.7,6.5-3.7
		c4.2,0,6.3,1.6,6.8,2.2l-2,1.1c-1.2-0.8-2.8-1.4-5-1.4c-0.9,0-1.8,0-2.7,0.4c-0.8,0.3-1.2,0.7-1.2,1.3c0,1.1,1.6,1.3,3,1.4
		c1.2,0.1,2.3,0.2,3.5,0.3c0.6,0,1.3,0.1,1.9,0.3c0.5,0.1,2.6,0.7,2.6,3.1c0,3-3.2,4-6.5,4C367.1,70,364,69.3,362,67.5L362,67.5
		L362,67.5z"/>
</g>
</svg>
