<?xml version="1.0" encoding="utf-8"?>
<!-- Generator: Adobe Illustrator 19.0.1, SVG Export Plug-In . SVG Version: 6.00 Build 0)  -->
<svg version="1.1" xmlns="http://www.w3.org/2000/svg" xmlns:xlink="http://www.w3.org/1999/xlink" x="0px" y="0px"
	 viewBox="0 0 1260 708.8" style="enable-background:new 0 0 1260 708.8;" xml:space="preserve">
<style type="text/css">
	.Blue_x0020_Neon{fill:none;stroke:#8AACDA;stroke-width:7;stroke-linecap:round;stroke-linejoin:round;}
	.navStrip{fill:#00A99D;}
	.hud_btn{fill:#29ABE2;}
	.hide_x0020_board{fill:#CCCCCC;}
	.hide_x0020_zone{fill:#4D4D4D;}
	.hide_x0020_board_x0020_2{fill:#CCCCCC;}
	.hide_x0020_board_x0020_3{fill:#CCCCCC;}
	.NAV_x0020_PAD{fill:#C69C6D;}
	.hide_x0020_zone_x0020_2{fill:#4D4D4D;}
	.nav_x002D_pad{fill:#333333;}
	.st0{fill:#FFFFFF;}
	.st1{opacity:0.38;fill:#B3B3B3;}
	.st2{display:none;}
	.st3{display:inline;}
	.st4{fill:#E6E6E6;}
	.st5{display:inline;fill:#E6E6E6;}
	.st6{fill:#333333;}
</style>
<g id="STATIC">
	<path id="bottom-line_2_" class="st0" d="M1230.8,680.1C834.3,608,425.2,608,28.7,680.1c0-1.3,0-2.5,0-3.8
		c396.5-71.3,805.6-71.3,1202.1,0C1230.8,677.6,1230.8,678.8,1230.8,680.1z"/>
	<path id="top-line_2_" class="st0" d="M1231.1,31.5C834.5,103,425.5,103,28.9,31.5c0-1.3,0-2.5,0-3.8
		c396.5,72.3,805.6,72.3,1202.1-0.1C1231.1,28.9,1231.1,30.2,1231.1,31.5z"/>
	<path id="burger-hit_2_" class="st1" d="M1278.2,60.3c-36.9,6.4-73.9,12.2-111,17.5c0-24.6,0-49.2,0-73.7
		c37.1-6.7,74.1-14.1,111-22.2C1278.2,8,1278.2,34.2,1278.2,60.3z"/>
	<path id="close-icon_1_" class="st0" d="M1225.5,25.4c-1.4-2.1-2.7-4.2-4.1-6.3c-1.4,2.6-2.7,5.2-4.1,7.7c-1.6,0.3-3.2,0.6-4.7,0.8
		c2.2-3.8,4.4-7.6,6.6-11.5c-2.1-2.9-4.1-5.8-6.2-8.6c1.6-0.3,3.1-0.6,4.7-0.9c1.2,1.9,2.5,3.9,3.7,5.8c1.2-2.4,2.5-4.8,3.7-7.2
		c1.6-0.3,3.1-0.6,4.7-0.9c-2.1,3.7-4.1,7.4-6.2,11c2.2,3,4.4,6.1,6.6,9.1C1228.7,24.9,1227.1,25.1,1225.5,25.4z"/>
	<g id="hamburger_2_">
		<path class="st0" d="M1230.8,20.1c0,1.3,0,2.5,0,3.8c-7,1.2-13,2.4-20,3.6c0-1.2,0-2.5,0-3.7C1217.8,22.6,1223.8,21.4,1230.8,20.1
			z"/>
		<path class="st0" d="M1230.8,4c0,1.3,0,2.5,0,3.8c-7,1.3-13,2.5-20,3.8c0-1.2,0-2.5,0-3.7C1217.8,6.6,1223.8,5.3,1230.8,4z"/>
		<path class="st0" d="M1210.8,16.3c7-1.2,13-2.5,20-3.7c0,1.3,0,2.5,0,3.8c-7,1.2-13,2.5-20,3.7
			C1210.8,18.8,1210.8,17.5,1210.8,16.3z"/>
	</g>
	<path id="pad-8" class="nav_x002D_pad" d="M1224.1,633.6c-97.5-15.1-195.8-26.4-294.4-34c0-81.5,0-162.9,0-244.4
		c98.6,0,196.9,0.1,294.4,0.1C1224.1,448.1,1224.1,540.8,1224.1,633.6z"/>
	<path id="pad-7" class="nav_x002D_pad" d="M927.7,599.4c-98.6-7.5-197.7-11.3-296.7-11.3c0-77.6,0-155.3,0-232.9
		c99,0,198,0,296.7,0C927.7,436.6,927.7,518,927.7,599.4z"/>
	<path id="pad-6" class="nav_x002D_pad" d="M629,588.1c-99,0-198,3.8-296.7,11.3c0-81.4,0-162.8,0-244.2c98.6,0,197.7,0,296.7,0
		C629,432.8,629,510.5,629,588.1z"/>
	<path id="pad-5" class="nav_x002D_pad" d="M330.3,599.6c-98.6,7.6-196.9,18.9-294.4,34c0-92.7,0-185.5,0-278.2
		c97.5-0.1,195.8-0.1,294.4-0.1C330.3,436.7,330.3,518.1,330.3,599.6z"/>
	<path id="pad-4_1_" class="nav_x002D_pad" d="M1224.1,353.4c-97.5,0.1-195.8,0.1-294.4,0.1c0-81.5,0-162.9,0-244.4
		c98.6-7.6,196.9-18.9,294.4-34C1224.1,167.9,1224.1,260.7,1224.1,353.4z"/>
	<path id="pad-3" class="nav_x002D_pad" d="M927.7,353.5c-98.6,0-197.7,0-296.7,0c0-77.6,0-155.3,0-232.9c99,0,198-3.8,296.7-11.3
		C927.7,190.7,927.7,272.1,927.7,353.5z"/>
	<path id="pad-2" class="nav_x002D_pad" d="M629,353.6c-99,0-198,0-296.7,0c0-81.4,0-162.8,0-244.2C431,116.9,530,120.6,629,120.7
		C629,198.3,629,275.9,629,353.6z"/>
	<path id="pad-1" class="nav_x002D_pad" d="M330.3,353.5c-98.6,0-196.9-0.1-294.4-0.1c0-92.7,0-185.5,0-278.2
		c97.5,15.1,195.8,26.4,294.4,34C330.3,190.6,330.3,272.1,330.3,353.5z"/>
    </g>
</svg>
